<svg width="101" height="18" viewBox="0 0 101 18" fill="none" xmlns="http://www.w3.org/2000/svg">
<path fill-rule="evenodd" clip-rule="evenodd" d="M28.3183 7.06966V14.1393H29.7512H31.1842V7.06966V0H29.7512H28.3183V7.06966ZM10.5984 0.406423C9.09384 0.74626 7.44149 1.68669 6.52026 2.72757C6.07429 3.23133 5.70953 3.69973 5.70953 3.76829C5.70953 3.83685 5.87082 3.9692 6.06777 4.06209C6.57933 4.30361 8.07565 5.7256 8.59087 6.46019L9.0284 7.0838L9.50573 6.36729C9.76844 5.9732 10.274 4.92919 10.6293 4.04746C11.3319 2.30421 11.6706 1.72319 12.5336 0.780951L13.0981 0.164411L12.3095 0.181181C11.8758 0.190552 11.1059 0.291829 10.5984 0.406423ZM91.5592 0.361704C91.2887 0.641037 91.3223 1.40883 91.6182 1.71464C91.9241 2.03031 92.4815 2.04806 92.8702 1.75459C93.2028 1.50337 93.252 0.773881 92.9607 0.41152C92.7232 0.116074 91.8279 0.0841784 91.5592 0.361704ZM0.0796264 1.20316C-0.284343 4.33189 0.603608 7.15663 2.65814 9.40544C4.18391 11.0759 5.79375 12.143 8.07199 12.9947C8.92284 13.3127 9.10355 13.3353 9.22392 13.139C9.30241 13.011 9.36769 12.1455 9.36913 11.2158C9.37279 8.63304 8.74436 7.03678 7.11987 5.5025C6.37744 4.80128 5.74583 4.37234 3.24533 2.8716C2.37171 2.34729 1.32438 1.56568 0.917743 1.13476L0.178659 0.351181L0.0796264 1.20316ZM18.6203 1.68521C18.4591 2.06944 17.2078 4.98329 15.8397 8.16019C14.4714 11.3371 13.3519 13.9821 13.3519 14.0379C13.3519 14.0936 14.0159 14.1393 14.8274 14.1393H16.3029L16.8467 12.7384L17.3906 11.3374L20.4028 11.382L23.4151 11.4265L23.925 12.7418L24.4352 14.0571L25.998 14.1045C27.2218 14.1415 27.5435 14.1058 27.481 13.94C27.437 13.8235 26.1662 10.8615 24.6568 7.35738L21.9127 0.986464H20.413H18.9132L18.6203 1.68521ZM80.7006 7.56289V14.1393H81.4171H82.1335V11.3443V8.54935H85.3975H88.6614V7.97392V7.39848H85.3975H82.1335V4.76791V2.13734H85.7955H89.4575V1.5619V0.986464H85.079H80.7006V7.56289ZM96.3038 3.1238V4.27468H95.4281C94.5614 4.27468 94.5524 4.27961 94.5524 4.76791C94.5524 5.25621 94.5614 5.26114 95.4281 5.26114H96.3038L96.3048 8.59046C96.3053 10.4217 96.379 12.1925 96.4686 12.5258C96.805 13.7766 98.2561 14.4897 99.7993 14.1623C100.906 13.9277 101.163 13.6849 100.911 13.1136C100.732 12.7078 100.705 12.7007 100.191 12.9225C99.5377 13.2046 98.9986 13.215 98.4488 12.9564C97.6651 12.5878 97.5776 12.1457 97.5776 8.55757V5.26114H99.0105H100.443V4.76791V4.27468H99.0105H97.5776V3.1238V1.97293H96.9407H96.3038V3.1238ZM52.2156 3.95753C51.4479 4.09794 49.4941 4.87626 49.4941 5.04165C49.4941 5.07717 49.7086 5.54475 49.9707 6.08089L50.4472 7.05568L51.2842 6.65321C51.9316 6.34198 52.3863 6.2504 53.2914 6.24925C54.4109 6.2476 54.4852 6.27194 55.003 6.8066C55.341 7.15564 55.5443 7.52606 55.5443 7.79306V8.22053H53.96C51.3179 8.22053 50.1077 8.65803 49.4288 9.85855C48.9771 10.6569 48.997 11.9112 49.4739 12.708C50.4859 14.3989 53.6973 14.8668 55.2188 13.545L55.7036 13.1236V13.6315V14.1393H57.0701H58.4367L58.3837 10.4812C58.3337 7.03151 58.3093 6.77832 57.9562 6.03765C57.3168 4.69688 56.0962 4.00636 54.1283 3.87187C53.5498 3.83241 52.6891 3.87105 52.2156 3.95753ZM73.0937 3.95605C71.9674 4.18524 70.8549 4.91045 70.4001 5.71212C70.0614 6.3086 70.0068 6.57495 70.0673 7.33025C70.201 8.99491 71.049 9.64959 73.7527 10.176C75.5504 10.5259 75.9241 10.6979 75.9241 11.1745C75.9241 12.1784 73.688 12.4202 71.7884 11.6217C71.2213 11.3833 70.7161 11.2419 70.6656 11.3073C70.615 11.3729 70.4005 11.8226 70.1889 12.3066C69.8083 13.1772 69.8075 13.1894 70.1176 13.4236C70.8115 13.9479 72.1515 14.2215 74.0135 14.2191C75.5792 14.2169 75.9596 14.1622 76.6387 13.8411C78.0565 13.1706 78.6308 12.3408 78.6308 10.9629C78.6308 9.43964 77.5565 8.56826 75.132 8.12435C72.9953 7.73338 72.4051 7.348 72.8615 6.64219C73.2742 6.00411 75.0795 5.88935 76.5138 6.40988C77.009 6.58958 77.4265 6.71913 77.4416 6.6976C77.489 6.63019 78.3123 4.73009 78.3123 4.68817C78.3123 4.56124 76.8071 4.0981 75.9241 3.95342C74.7378 3.75908 74.0582 3.75974 73.0937 3.95605ZM22.4265 9.00148C22.427 9.02417 21.5317 9.04259 20.4371 9.04259C19.3425 9.04259 18.4469 8.9783 18.4469 8.89971C18.4469 8.82112 18.8126 7.84074 19.2597 6.72127C19.7066 5.60163 20.1417 4.50074 20.2266 4.27468C20.3646 3.90656 20.4874 4.12934 21.4032 6.41201C21.9656 7.81362 22.426 8.97879 22.4265 9.00148ZM32.1365 4.06259C32.1347 4.13394 32.9049 6.43207 33.8481 9.16918L35.5627 14.1461L36.9693 14.1015L38.376 14.0571L39.0813 12.0842C39.4692 10.9991 39.9752 9.60027 40.2057 8.97583L40.6248 7.84058L41.4741 10.2911C41.9412 11.639 42.4383 13.0562 42.5784 13.4406L42.8333 14.1393H44.2134L45.5933 14.1391L47.3621 9.08369L49.1308 4.02806L47.9332 3.97956C47.2366 3.95128 46.6933 4.00143 46.6349 4.09909C46.5795 4.19165 46.037 5.71163 45.4293 7.4769C44.8216 9.24234 44.2874 10.6865 44.2424 10.6865C44.1973 10.6864 43.6501 9.18809 43.0263 7.35721L41.8923 4.02806L40.6972 3.98038L39.5022 3.9327L38.789 5.95331C38.3967 7.06472 37.8686 8.58404 37.6153 9.32981C37.3621 10.0756 37.111 10.686 37.0574 10.6862C37.0037 10.6865 36.4606 9.18858 35.8505 7.35738L34.7411 4.02806L33.4403 3.98038C32.7248 3.95408 32.1381 3.99107 32.1365 4.06259ZM58.9403 4.06916C58.9796 4.1369 59.9523 6.47005 61.1018 9.25369C63.3515 14.7009 63.3221 14.5689 62.4497 15.2774C61.9589 15.6762 61.0674 15.7191 60.4801 15.3724C60.2611 15.2432 60.0293 15.1348 59.9648 15.1315C59.9005 15.1284 59.6342 15.5626 59.3732 16.0966C59.0121 16.8353 58.9449 17.1054 59.0922 17.2258C59.869 17.8599 61.3535 18.1601 62.4993 17.9145C63.4558 17.7095 64.1656 17.2547 64.7996 16.4411C65.1789 15.9541 70.0331 4.49384 70.0331 4.08528C70.0331 4.0085 69.4421 3.94602 68.7195 3.94635L67.406 3.94684L66.0627 7.31677C65.3239 9.17017 64.671 10.6867 64.6116 10.6867C64.5524 10.6867 63.9031 9.17017 63.1686 7.3166L61.8334 3.94668L60.3513 3.94618C59.5361 3.94602 58.9011 4.00143 58.9403 4.06916ZM91.5273 9.12479V14.1393H92.2438H92.9603V9.12479V4.11027H92.2438H91.5273V9.12479ZM55.5443 10.4856C55.5443 11.2542 55.1883 11.8019 54.4937 12.1016C52.9302 12.7762 51.4961 11.9175 51.9859 10.5997C52.1556 10.1427 53.0004 9.87796 54.3104 9.87105L55.5443 9.86464V10.4856ZM3.46664 11.6276C3.37414 11.8788 3.18929 12.6391 3.05602 13.3173C2.92276 13.9955 2.64652 14.8647 2.44192 15.2491C2.01475 16.0516 2.1184 16.1096 3.19868 15.6731C4.28311 15.2348 5.22519 14.4905 5.72434 13.6776C5.97892 13.2632 6.18718 12.8735 6.18718 12.8119C6.18718 12.75 5.96061 12.6026 5.6839 12.4842C5.40702 12.3658 4.83272 12.0219 4.40777 11.72L3.63509 11.1712L3.46664 11.6276Z" fill="white"/>
</svg>
